<?xml version="1.0" encoding="UTF-8"?>
<svg id="Layer_1" xmlns="http://www.w3.org/2000/svg" version="1.1" viewBox="0 0 800 800">
  <!-- Generator: Adobe Illustrator 30.3.0, SVG Export Plug-In . SVG Version: 2.1.3 Build 182)  -->
  <defs>
    <style>
      .st0 {
        fill: #9d1f60;
        fill-rule: evenodd;
      }
    </style>
  </defs>
  <path class="st0" d="M66.67,200c0-55.23,44.77-100,100-100h466.67c55.23,0,100,44.77,100,100v333.33h33.33v66.67c0,55.23-44.77,100-100,100H133.33c-55.23,0-100-44.77-100-100v-66.67h33.33V200h0ZM666.67,200v333.33H133.33V200c0-18.41,14.92-33.33,33.33-33.33h466.67c18.41,0,33.33,14.92,33.33,33.33h0ZM133.33,633.33c-18.41,0-33.33-14.92-33.33-33.33h600c0,18.41-14.92,33.33-33.33,33.33H133.33ZM183.33,200c-9.2,0-16.67,7.46-16.67,16.67v266.67c0,9.2,7.46,16.67,16.67,16.67h433.33c9.2,0,16.67-7.46,16.67-16.67V216.67c0-9.2-7.46-16.67-16.67-16.67H183.33Z"/>
</svg>