<?xml version="1.0" encoding="UTF-8"?>
<svg id="Layer_1" data-name="Layer 1" xmlns="http://www.w3.org/2000/svg" viewBox="0 0 950 950">
  <defs>
    <style>
      .cls-1 {
        fill: #fbfadb;
      }
    </style>
  </defs>
  <path class="cls-1" d="M916.01,428.55c-.13-.13-.28-.28-.42-.41-.23-.24-.45-.47-.69-.7-.19-.2-.38-.4-.58-.59l-.64-.63c-.22-.23-.45-.45-.65-.65-.14-.14-.29-.29-.43-.42-.21-.22-.41-.43-.63-.64l-1.28-1.28c-.22-.23-.45-.45-.66-.66-.14-.16-1.12-1.12-1.12-1.12-.23-.23-.45-.46-.67-.67l-.42-.42c-.25-.26-.51-.52-.77-.77-.14-.14-1.13-1.14-1.13-1.14-.23-.22-.45-.43-.66-.65-.14-.14-.53-.54-.53-.54-.23-.22-.45-.45-.67-.66-.14-.14-1.12-1.12-1.12-1.12-.22-.23-.45-.45-.67-.67l-.41-.41c-.2-.2-.42-.42-.63-.64l-.1-.08c-.2-.22-.42-.43-.66-.66-.14-.14-.53-.53-.53-.53-.22-.22-.43-.43-.66-.66-.14-.14-1.12-1.13-1.12-1.13-.23-.22-.45-.45-.66-.65-.14-.16-.53-.54-.53-.54-.22-.22-.43-.43-.67-.66-.16-.17-.31-.32-.49-.49l-.64-.64c-.22-.23-.43-.45-.65-.65-.14-.14-.28-.29-.42-.42-.25-.26-.52-.52-.78-.78-.14-.16-1.12-1.13-1.12-1.13-.23-.22-.45-.45-.66-.65-.14-.14-.29-.29-.42-.42-.22-.22-.42-.42-.63-.64l-1.3-1.29-.64-.64c-.14-.16-2.05-2.05-2.05-2.05-.14-.14-.29-.29-.43-.42-.37-.36-.75-.72-1.11-1.06-.65-.6-1.32-1.18-2.01-1.76l-.17-.14c-.64-.52-1.28-1.03-1.94-1.54-.19-.16-.43-.34-.71-.52-.39-.29-.77-.57-1.16-.84-.49-.34-.97-.67-1.53-1.02-.13-.1-.26-.18-.41-.26-.34-.22-.67-.43-1.01-.64l-.4-.25c-1.22-.72-2.33-1.36-3.47-1.95-.53-.28-1.07-.55-1.72-.88-.54-.26-1.11-.53-1.66-.79l-.16-.07c-1.2-.54-2.31-1.02-3.38-1.44l-.57-.23c-.55-.22-1.12-.43-1.68-.64-.64-.24-1.29-.47-1.96-.69l-1.31-.43-1.14-.36c-1.59-.49-3.26-.95-5.11-1.41-.36-.1-.72-.18-1.08-.26l-.43-.1c-1.11-.26-2.24-.49-3.39-.72-.45-.08-.89-.17-1.41-.26-1.16-.22-2.33-.41-3.53-.58-.53-.1-1.09-.17-1.74-.25-.45-.07-.88-.12-1.32-.18-.61-.07-1.22-.14-1.76-.2-.52-.06-1.05-.12-1.67-.18-.75-.07-1.5-.13-2.27-.19-1.41-.12-2.85-.22-4.38-.29,0,0-.99-.05-1.31-.06-.53-.02-1.06-.05-1.59-.06-.83-.02-1.66-.05-2.51-.06h-.13c-.77-.01-1.54-.01-2.36-.01-14.22,0-27.14,1.88-38.35,5.58-.55.18-1.09.36-1.62.55-1.65.57-3.29,1.2-4.83,1.85-2.64,1.11-5.15,2.32-7.5,3.63-.95.53-1.88,1.07-2.71,1.59-.48.29-.95.59-1.47.93-1.11.72-2.19,1.48-3.26,2.27-1.61,1.2-3.15,2.48-4.6,3.8-.46.42-.9.84-1.34,1.28-.43.42-.85.85-1.29,1.3l-.22.22c-.41.46-.83.9-1.23,1.36l-.76.87c-3.5-1.93-7.24-3.55-11.23-4.9-9.3-3.14-20.02-4.73-31.85-4.73s-22.8,1.49-32.06,4.55c-5.04,1.68-9.72,3.85-13.88,6.43h-.23l-2.13,1.53c-1.44-1.81-2.98-3.53-4.63-5.15-.22-.23-.43-.45-.65-.65-.32-.31-.66-.61-.99-.9-.19-.18-.38-.36-.58-.54l-.22-.19c-.49-.43-1-.85-1.5-1.26-.28-.24-.55-.46-.84-.69-.36-.29-.75-.58-1.12-.87-.28-.2-.55-.41-.85-.63-.48-.36-.97-.71-1.48-1.06l-.36-.24c-.69-.46-1.42-.93-2.14-1.37-.71-.45-1.35-.82-1.96-1.16-.24-.14-.48-.28-.72-.41-.6-.34-1.23-.66-1.84-.99l-.31-.16c-.59-.3-1.2-.59-1.82-.88-.34-.17-.67-.31-1.02-.47-.55-.25-1.12-.51-1.7-.75l-2.2-1.02h-.37c-.26-.1-.54-.19-.81-.29-.61-.23-1.23-.45-1.85-.66-.17-.06-.34-.11-.51-.17-.75-.25-1.43-.46-2.01-.63-.19-.06-.38-.12-.58-.18-.75-.22-1.49-.43-2.26-.64-.23-.06-.47-.12-.72-.18-.69-.18-1.38-.35-2.09-.52-.2-.05-.4-.1-.58-.13-.55-.13-1.11-.25-1.66-.36-.28-.06-.57-.12-.87-.18-.48-.1-.97-.19-1.48-.28-.23-.05-.83-.16-.83-.16-.43-.07-.87-.16-1.3-.22-.76-.13-1.53-.24-2.35-.36-1.02-.14-2.07-.28-3.06-.39-.88-.11-1.78-.2-2.59-.28-.35-.04-.71-.06-1.07-.1-.85-.07-1.72-.13-2.59-.19-1.08-.07-2.19-.13-3.19-.17-.89-.05-1.79-.07-2.72-.1l-1.5-.02c-.81-.01-1.61-.02-2.43-.02h-79.42v6.17l-7.35-7.33h-6.5l-71.44,19.04h-2.06c-.3-.14-.61-.26-.91-.4-1.42-.59-2.92-1.14-4.43-1.61-5.87-1.85-12.35-2.79-19.25-2.79s-12.8.9-18.53,2.67h-77.32v3.36c-1.11-.41-2.24-.82-3.38-1.19-9.76-3.21-21.05-4.84-33.55-4.84-.79,0-1.58.01-2.34.01-.93.01-1.83.05-2.72.07-.72.02-1.44.06-2.14.1-.78.05-1.55.08-2.31.14-6.44.45-12.51,1.36-18.13,2.74l-16.15-16.15h-69.41c-5.58-1.29-13.81-2.66-23.51-2.66-.78,0-1.54.01-2.31.02-.65.01-1.31.05-1.9.07-.53.02-1.06.05-1.58.1-.35.01-.64.04-.87.06-.42.02-.84.06-1.29.1-.19.01-.41.04-.65.06-.64.06-1.25.13-1.89.2-.65.08-1.3.17-2.02.28-.66.1-1.31.19-2.01.31-3.18.53-6.28,1.26-9.28,2.18l-.72-.72H18.47v133.04l.02,11.95h6.99l30.46,30.44h209.25v-3.27c10.48,3.96,22.78,5.94,36.81,5.94,10.17,0,19.49-1.06,27.83-3.14l16.1,16.09h88.34v-12.96c18.17-.37,30.36-6.56,38.46-14,11.66,9.3,27.46,14.01,47.06,14.01,9.84,0,19.99-1.25,27.82-3.44l4.16-1.17,1.94,1.94h72.44c21.17,0,38.44-4.16,51.53-12.39,9.46,9.72,23.25,15.07,38.95,15.07,7,0,13.92-.91,20.35-2.67h78.17v-11.68l.67.67c8.76,8.95,20.88,13.68,35.07,13.68,28.75,0,48.06-19.47,48.06-48.46v-.51c28.04-9.06,32.56-31.18,32.56-44.48,0-14.51-5.38-27.29-15.52-36.92ZM886.02,500.81c.67,3.04,1.01,6.27,1.01,9.64,0,22.18-14.18,36.52-36.13,36.52-11.16,0-20.33-3.68-26.64-10.2-.2-.2-.4-.4-.6-.6-.19-.19-.4-.4-.59-.6-.2-.19-.41-.39-.6-.59-.2-.2-.4-.4-.59-.6-.2-.19-.41-.4-.6-.6-.2-.19-.4-.39-.6-.59-.19-.19-.4-.4-.59-.6-.2-.19-.41-.4-.6-.59-.2-.2-.4-.4-.59-.6-.2-.19-.41-.4-.6-.6-.2-.19-.4-.39-.6-.59-.19-.2-.4-.4-.59-.6-.2-.19-.41-.4-.6-.59-.2-.2-.4-.4-.59-.6-.2-.19-.41-.4-.6-.6-.2-.19-.4-.39-.6-.59-.2-.2-.4-.4-.59-.6-.2-.19-.41-.4-.6-.6-.2-.19-.4-.39-.6-.59-.19-.19-.4-.4-.59-.6-.2-.19-.41-.4-.6-.59-.2-.2-.4-.4-.59-.6-.2-.19-.41-.4-.6-.6-.2-.19-.4-.39-.6-.59-.19-.2-.4-.4-.59-.6-.2-.19-.41-.4-.6-.59-.2-.2-.4-.4-.59-.6-.2-.19-.41-.4-.6-.6-.2-.19-.4-.39-.6-.59-.19-.2-.4-.4-.59-.6-.2-.19-.41-.4-.6-.6-.2-.19-.4-.39-.6-.59-.19-.19-.4-.4-.59-.6-.2-.19-.41-.38-.6-.59-.2-.2-.4-.4-.6-.6-.04-.05-.08-.08-.13-.13v28.57h-62.29l-1.44-1.44c-7.08,2.78-15.07,4.12-22.85,4.12-13.04,0-23.77-4.37-30.81-11.88-.19-.2-.41-.41-.59-.6-.2-.2-.41-.4-.6-.6-.19-.19-.41-.4-.6-.59-.19-.2-.4-.4-.59-.6-.2-.2-.41-.4-.6-.6-.19-.19-.41-.4-.59-.6-.2-.19-.41-.38-.6-.59-.19-.2-.41-.4-.6-.6-.19-.19-.4-.39-.59-.6-.2-.19-.41-.39-.6-.59-.19-.2-.41-.4-.59-.6-.18-.16-.36-.32-.53-.51-11.46,10.83-29.01,16.29-52.59,16.29h-67.5l-7.55-7.53v5.33l-6.7,1.87c-6.85,1.91-15.81,3.01-24.62,3.01-19.24,0-33.87-5.03-43.51-14.95-.05-.05-.08-.1-.13-.14-.16-.16-.31-.3-.46-.45-.06-.05-.1-.11-.14-.16-.16-.14-.31-.29-.46-.45-.05-.05-.1-.1-.13-.16-.16-.14-.32-.29-.47-.45-.05-.05-.08-.1-.13-.14-.16-.14-.31-.3-.46-.45-.05-.05-.1-.1-.14-.16-.14-.14-.31-.29-.46-.45l-.14-.14c-.14-.16-.3-.3-.45-.45-.06-.06-.1-.11-.14-.16-.16-.14-.31-.3-.46-.45-.05-.05-.1-.1-.14-.16-.07-.08-.17-.17-.26-.25-7.75,12.86-20.91,19.53-39.18,19.53-3.78,0-7.18-.31-10.18-.81v13.75h-71.46l-1.79-1.79-2.38-2.39-1.2-1.19-5.38-5.38-.59-.59-1.79-1.79-4.49-4.49c-8.3,2.92-18.56,4.68-31.25,4.68-21.26,0-37.69-5.02-48.75-14.6v11.93H60.89l-1.79-1.79-2.38-2.38-1.19-1.19-4.78-4.78-.6-.6-.6-.59-14.33-14.33-1.19-1.2-1.2-1.19-1.19-1.19-1.19-1.2v-121.11h74.93l2.62,2.62c4.39-1.95,9.17-3.38,14.31-4.25.57-.1,1.14-.18,1.72-.26.58-.08,1.17-.17,1.75-.23.59-.08,1.16-.14,1.74-.2h.16c.51-.05,1-.1,1.49-.12.17-.02.34-.04.51-.04.47-.04.94-.07,1.41-.08.58-.04,1.14-.06,1.72-.07.67-.01,1.35-.02,2.03-.02h.05c9.27,0,17.02,1.41,22.06,2.66h65.87l1.79,1.79,1.19,1.19,1.19,1.19,3.59,3.59,1.2,1.19,1.19,1.2.6.59.6.6.59.6,1.19,1.19,4.19,4.19.36.36c.57-.19,1.14-.39,1.73-.58.06-.02.13-.04.19-.06.28-.08.54-.17.82-.24.36-.12.72-.23,1.09-.32.4-.12.78-.23,1.18-.32.42-.12.85-.23,1.29-.34.02,0,.04-.01.06-.01.35-.1.71-.17,1.06-.25.58-.14,1.16-.26,1.73-.38.4-.1.81-.17,1.2-.25.41-.08.83-.16,1.24-.23.12-.02.24-.05.36-.07.71-.12,1.42-.24,2.14-.35,1.7-.25,3.44-.47,5.22-.64,1.02-.1,2.05-.18,3.09-.25.7-.06,1.4-.1,2.11-.13.6-.04,1.22-.07,1.83-.08.83-.02,1.65-.06,2.49-.06.73-.01,1.46-.02,2.2-.02,11.35,0,21.31,1.44,29.82,4.25,2.83.91,5.48,1.99,7.97,3.22.52.25,1.03.52,1.53.78.89.47,1.74.96,2.59,1.46.63.39,1.25.78,1.86,1.18,1.81,1.2,3.51,2.52,5.1,3.92v-.02s.01.01.02.02v-12.14h67.28c.31-.11.63-.22.94-.32,4.74-1.55,10.01-2.35,15.67-2.35s10.94.75,15.66,2.24c1.18.37,2.32.78,3.43,1.25,1.11.46,2.19.96,3.24,1.52.53.28,1.05.58,1.54.88,1.53.9,2.97,1.91,4.33,3.02v-.02l.02.02v-4.1l71.44-19.03h0s.01-.01.01-.01l.6.6,1.19,1.19,3.59,3.59,1.78,1.78,2.39,2.39.59.6,1.2,1.19.59.6,1.2,1.19,2.18,2.18,1.35-.25h.01l1.79,1.79,1.2,1.19,1.19,1.19,1.19,1.2,1.2,1.19.95.95v.02s.01-21.46.01-21.46h67.47c.83,0,1.64.01,2.44.02.42,0,.83.01,1.24.02.82.02,1.61.05,2.41.08,1,.04,1.99.1,2.95.16.82.06,1.64.11,2.43.18.29.02.57.05.84.08.81.07,1.61.16,2.41.24.91.11,1.83.23,2.73.35.72.11,1.43.2,2.14.32.37.06.73.12,1.08.19.25.05.51.08.76.13.45.07.89.16,1.32.25.25.05.51.1.75.16.53.1,1.05.22,1.56.34.11.02.2.04.3.07.7.16,1.37.32,2.05.49.16.04.3.07.45.12.7.18,1.38.37,2.06.58.13.04.25.07.38.12.66.19,1.34.4,1.97.63.06.01.12.02.16.05.59.19,1.17.4,1.73.61.24.08.47.16.71.25.64.24,1.26.49,1.88.75.01,0,.02,0,.04.01.6.25,1.19.51,1.77.78.22.08.41.17.61.28.53.24,1.07.49,1.59.76.07.04.14.08.22.12.58.29,1.14.6,1.71.91.1.05.2.11.31.18.59.31,1.16.66,1.72,1.01.59.36,1.19.73,1.75,1.12.04.01.05.04.07.05.52.34,1.01.7,1.5,1.06.18.12.34.24.51.37.34.24.67.51.99.76.22.17.43.34.64.52.41.32.82.67,1.22,1.02.2.18.41.36.6.55.29.25.58.52.85.79.13.12.28.25.4.39,4.42,4.32,7.87,9.46,10.4,15.41.73-.93,1.52-1.83,2.33-2.71h.01c.4-.41.79-.82,1.2-1.23.42-.4.83-.79,1.26-1.18.3-.28.61-.54.91-.82.32-.26.64-.53.96-.81.65-.52,1.31-1.02,2-1.5h.01c.67-.49,1.36-.96,2.07-1.42,3.57-2.29,7.55-4.16,11.95-5.62,7.98-2.65,17.36-3.95,28.29-3.95s19.95,1.37,28.04,4.1c6.25,2.11,11.71,5.02,16.39,8.72.34.26.66.54.99.82s.64.55.95.83c.05.04.08.07.13.12h.01s.01,0,.01,0c.43-1.01.9-1.99,1.42-2.95.18-.32.35-.64.53-.95.25-.43.52-.84.77-1.26.21-.32.42-.65.65-.99.45-.65.9-1.28,1.4-1.9h0c.49-.63,1-1.24,1.53-1.84h0c.32-.39.67-.76,1.01-1.13.36-.36.71-.72,1.07-1.08.37-.36.75-.71,1.12-1.06,1.14-1.05,2.35-2.05,3.63-3.01.87-.64,1.74-1.25,2.66-1.85.37-.24.76-.48,1.13-.71.75-.46,1.53-.91,2.32-1.36,1.97-1.1,4.08-2.12,6.31-3.04,1.32-.57,2.7-1.08,4.1-1.59.48-.17.95-.32,1.43-.48,9.82-3.25,21.49-4.99,34.63-4.99h.05c.77,0,1.54.01,2.31.01.77.01,1.54.04,2.31.06.48.01.96.02,1.43.05.44.01.88.05,1.31.06,1.32.06,2.65.16,3.95.26.69.05,1.38.12,2.07.18.46.05.93.1,1.4.14.58.07,1.16.13,1.72.2.41.05.81.11,1.22.16.48.07.97.13,1.44.22,1.1.16,2.18.34,3.24.53.4.07.81.14,1.2.23,1.04.2,2.07.41,3.07.65.43.1.84.19,1.28.3,1.54.37,3.04.78,4.51,1.24l1.06.34c.36.12.72.24,1.08.36.58.19,1.13.38,1.68.59.55.2,1.11.41,1.65.63.01.01.05.01.07.02,1.06.42,2.08.87,3.08,1.31.51.24,1.01.48,1.5.72.49.25.99.51,1.47.75.97.52,1.9,1.05,2.82,1.59.41.26.82.52,1.22.77.08.05.16.11.23.16.41.25.79.52,1.18.79.4.28.77.55,1.16.83.1.06.19.13.29.2.58.43,1.13.89,1.68,1.35.54.46,1.08.93,1.6,1.41.36.32.71.67,1.06,1.01.12.1.2.19.31.3.05.05.11.12.17.17.04.04.07.08.12.12.2.19.4.4.6.6.2.19.4.4.59.59.22.2.4.41.6.6.2.19.4.4.6.6.2.19.4.4.59.59.2.19.4.4.6.6.2.19.4.4.59.6.22.19.4.4.6.59.2.19.4.4.6.6.2.19.4.4.59.59.21.19.4.41.6.6.21.19.4.4.6.6.21.19.4.4.59.59.2.19.4.4.6.6.2.19.4.4.6.59.2.2.4.41.59.6.21.19.4.4.6.6.21.19.4.4.6.59.19.2.4.4.59.6.2.19.4.4.6.6.2.19.4.4.6.59.19.2.4.4.59.6.21.2.4.4.6.6.21.19.4.4.6.59.19.2.4.4.59.6l.6.6c.2.19.4.4.6.59.19.2.4.4.59.6.21.19.4.4.6.6.21.19.4.4.6.59.19.2.39.41.59.6.2.19.4.4.6.6.2.19.4.4.59.59.2.2.4.41.6.6.2.19.4.4.59.6.22.19.4.4.6.59.2.19.4.4.6.6.2.19.4.4.59.59.22.2.4.41.6.6.2.19.4.4.6.6.2.19.4.4.59.59.2.19.4.4.6.6.2.19.4.4.59.6.22.19.4.4.6.59.2.19.4.4.6.6.2.19.4.4.59.59.22.19.4.41.6.6.2.19.4.4.59.6.22.19.4.4.6.59,7.71,7.3,11.83,16.86,11.83,28.28,0,24.42-16.71,32.51-33.57,35.34Z"/>
  <path class="cls-1" d="M146.63,454.23h-48.72c-1.06,0-1.73-.26-1.73-1.47,0-1.07.67-1.32,1.73-1.32h48.72l4.69-26.9,3.97-22.77c-1.22-.31-2.55-.61-3.97-.9-4.64-.93-10.31-1.62-16.45-1.62-33.63,0-50.71,22.82-50.71,54.98,0,.94-.26,1.73-1.47,1.73-.94,0-1.34-.79-1.34-1.73,0-16.41,4.14-31.37,14.81-43.25v-9.06h-56.59v102.77h56.59v-44.32c0-1.73,2.27-1.73,2.39,0l1.88,44.32h58.18l-7.3-30.73-4.69-19.72Z"/>
  <rect class="cls-1" x="160.5" y="401.92" width="53.1" height="102.77"/>
  <path class="cls-1" d="M271.54,415c-23.43,0-39.98,6.22-48.75,19.04-4.83,7.04-7.32,16.06-7.32,27.14s2.49,20.04,7.32,27.08c8.77,12.82,25.32,19.1,48.75,19.1s40.16-6.41,48.87-19.53c4.64-6.97,7.05-15.85,7.05-26.64s-2.41-19.74-7.05-26.7c-8.71-13.1-25.36-19.47-48.87-19.47ZM271.54,481.19c-.37,0-.69-.04-.95-.39-.11-.13-.19-.31-.29-.55-.14-.4-.28-.95-.38-1.76-.01-.08-.02-.17-.04-.25-.08-.67-.16-1.52-.22-2.55-.01-.12-.01-.25-.02-.4-.01-.13-.01-.26-.02-.41-.01-.18-.01-.37-.02-.57-.01-.41-.04-.83-.05-1.29-.01-.2-.01-.42-.02-.64,0-.13,0-.26-.01-.41,0-.18-.01-.36-.01-.55-.04-1.41-.06-3.01-.07-4.84,0-.32-.01-.65-.01-1-.01-1.35-.01-2.82-.01-4.42s0-3.07.01-4.42c0-.35.01-.67.01-1,.01-1.84.04-3.45.07-4.85.01-.19.01-.37.01-.55.01-.14.01-.28.01-.4.01-.23.01-.43.02-.65.02-.83.06-1.59.1-2.26.01-.13.01-.26.02-.4.14-2.45.36-3.81.64-4.56.05-.12.1-.23.14-.31.05-.1.1-.18.14-.24.26-.35.58-.39.95-.39,1.32,0,2,.53,2,20.02s-.67,20.01-2,20.01Z"/>
  <path class="cls-1" d="M404.31,415c-17.88,0-33.62,9.06-33.62,37.5,0,.81-.14,1.6-1.2,1.6s-1.35-.79-1.35-1.6c0-14.68,2.95-25.22,14.55-34.84h-53.12v102.64h53.12v-16.69c4.15,1.88,10.95,3.74,19.36,3.74,13.36,0,27.56-3.78,34.25-21.05,2.48-6.37,3.92-14.58,3.92-25.13,0-15.34-2.94-25.88-7.71-32.97-6.79-10.12-17.29-13.2-28.2-13.2ZM382.69,500.68v-39.51c0-12.68.81-13.08,1.88-13.08,1.19,0,1.73.79,1.73,27.1,0,19.75.13,21.61-3.61,25.49Z"/>
  <path class="cls-1" d="M494.81,403.52l-53.13,14.14v45.25c0,8.77,1.36,16.55,4.4,23.06h0c6.27,13.41,19.71,21.38,43.25,21.38,8.4,0,16.41-1.07,22.15-2.66v-40.18l-56.73-8.81c-.93-.13-1.2-.67-1.2-1.34,0-1.06.67-1.6,1.75-1.47l56.19,8.81v-44.04l-16.68,3.07v-17.21Z"/>
  <path class="cls-1" d="M595.69,401.92h-58.32v102.77h58.32c24.93,0,41.65-6.22,50.87-19.03,5.84-8.11,8.66-18.87,8.66-32.36,0-6.61-.67-12.55-2.06-17.85-5.86-22.67-24.48-33.54-57.47-33.54ZM594.48,476.78h-.52v-46.98h.52c1.2,0,2.95.54,2.95,23.5s-1.75,23.48-2.95,23.48Z"/>
  <path class="cls-1" d="M710.33,415c-24.78,0-40.18,7.29-47.53,21.46-3.5,6.74-5.19,15.04-5.19,24.85h.94c1.14-1.9,3.06-3.92,5.8-5.7,4.61-3.01,11.59-5.37,21.29-5.37s17.09,1.6,21.23,6.14c-6.8-2.41-15.09-3.48-21.23-3.48-8.78,0-16.17,2.19-21.44,6.47-5.62,4.55-8.84,11.47-8.84,20.63,0,2.77.31,5.32.89,7.64,3.35,13.35,15.62,19.71,29.94,19.71,12.8,0,33.77-4.8,36.03-21.62.13-1.06.26-1.6,1.34-1.6.67,0,1.2.4,1.2,1.2,0,5.61-3.73,14.68-14.28,19.36h53.13v-45.68c-.08-11.29-3.16-20.93-9.47-28.29-8.52-9.95-22.95-15.72-43.79-15.72ZM710.46,483.59c0,4.14-.79,5.07-1.87,5.07-1.47,0-2.13-2.39-2.13-12.14s.66-14.28,2.66-16.68c.94,2,1.34,4.27,1.34,6.94v16.81Z"/>
  <path class="cls-1" d="M822.57,399.38c-27.48,0-53.87,8.93-58.74,28.94h0c-.52,2.15-.79,4.42-.79,6.82,0,8.56,3.48,15.13,9.55,19.55h0c6.05,4.43,14.68,6.74,25.02,6.74,9.07,0,18.82-2.54,21.09-8.81v-14.42c0-10.01.66-11.07,1.72-11.07,1.2,0,1.74,1.6,1.74,20.28,0,11.74-9.61,16.82-24.83,16.82-2.8,4.54-4.01,10.01-4.01,15.75,0,15.08,8.28,27.35,27.09,27.35s26.97-12.27,26.97-27.35c0-6.55-1.6-12.68-5.08-17.48,30.84-1.6,37.64-12.55,37.64-27.5,0-22.42-20.69-35.63-57.39-35.63Z"/>
</svg>