<?xml version="1.0" encoding="UTF-8"?>
<svg id="Layer_1" xmlns="http://www.w3.org/2000/svg" version="1.1" viewBox="0 0 800 800">
  <!-- Generator: Adobe Illustrator 30.3.0, SVG Export Plug-In . SVG Version: 2.1.3 Build 182)  -->
  <defs>
    <style>
      .st0 {
        fill: #8cc63f;
        fill-rule: evenodd;
      }
    </style>
  </defs>
  <path class="st0" d="M166.67,166.67c0-18.41,14.92-33.33,33.33-33.33h400c18.41,0,33.33,14.92,33.33,33.33v200c55.23,0,100,44.77,100,100v133.33c0,55.23-44.77,100-100,100H166.67c-55.23,0-100-44.77-100-100v-133.33c0-55.23,44.77-100,100-100v-200h0ZM166.67,433.33c-18.41,0-33.33,14.92-33.33,33.33v133.33c0,18.41,14.92,33.33,33.33,33.33h466.67c18.41,0,33.33-14.92,33.33-33.33v-133.33c0-18.41-14.92-33.33-33.33-33.33v66.67c0,18.41-14.92,33.33-33.33,33.33H200c-18.41,0-33.33-14.92-33.33-33.33v-66.67h0ZM233.33,200v266.67h333.33V200H233.33ZM300,300c0-18.41,14.92-33.33,33.33-33.33h133.33c18.41,0,33.33,14.92,33.33,33.33s-14.92,33.33-33.33,33.33h-133.33c-18.41,0-33.33-14.92-33.33-33.33ZM300,400c0-18.41,14.92-33.33,33.33-33.33h133.33c18.41,0,33.33,14.92,33.33,33.33s-14.92,33.33-33.33,33.33h-133.33c-18.41,0-33.33-14.92-33.33-33.33Z"/>
</svg>